<svg width="14" height="15" viewBox="0 0 14 15" fill="none" xmlns="http://www.w3.org/2000/svg">
<path d="M12.8398 6.83984C13.0612 6.83984 13.25 6.92448 13.4062 7.09375C13.5755 7.25 13.6602 7.4388 13.6602 7.66016C13.6602 7.89453 13.5755 8.09635 13.4062 8.26562C13.25 8.42188 13.0612 8.5 12.8398 8.5H3.17188L7.58594 12.9141C7.66406 12.9922 7.72266 13.0833 7.76172 13.1875C7.80078 13.2786 7.82031 13.3828 7.82031 13.5C7.82031 13.7214 7.73568 13.9167 7.56641 14.0859C7.41016 14.2422 7.21484 14.3203 6.98047 14.3203C6.8763 14.3203 6.77214 14.3008 6.66797 14.2617C6.57682 14.2227 6.49219 14.1641 6.41406 14.0859L0.574219 8.26562C0.496094 8.1875 0.4375 8.09635 0.398438 7.99219C0.359375 7.88802 0.339844 7.77734 0.339844 7.66016C0.339844 7.55599 0.359375 7.45182 0.398438 7.34766C0.4375 7.24349 0.496094 7.15234 0.574219 7.07422L6.41406 1.23438C6.49219 1.15625 6.57682 1.09766 6.66797 1.05859C6.77214 1.00651 6.88932 0.980469 7.01953 0.980469C7.24089 0.980469 7.42969 1.0651 7.58594 1.23438C7.75521 1.39062 7.83984 1.58594 7.83984 1.82031C7.83984 1.9375 7.8138 2.04818 7.76172 2.15234C7.72266 2.25651 7.66406 2.34766 7.58594 2.42578L3.17188 6.83984H12.8398Z" fill="#526484"/>
</svg>
