<svg width="22" height="28" viewBox="0 0 22 28" fill="none" xmlns="http://www.w3.org/2000/svg">
<path d="M16.1467 27.1312C17.082 25.7041 17.6692 24.0898 17.8639 22.4105C18.0586 20.7313 17.8556 19.0311 17.2703 17.4391C16.2717 14.8744 14.4973 12.6606 12.1788 11.0864C11.4016 10.5271 10.584 10.0223 9.73225 9.57598C10.4363 11.2544 10.737 13.0656 10.6117 14.873C10.4865 16.6803 9.93856 18.4365 9.00928 20.0089C8.54119 17.8402 8.11674 15.6667 5.59876 14.5391C6.79973 16.6311 5.75646 18.295 4.92539 19.9888C4.52532 20.6411 4.18867 21.3279 3.91978 22.0404C3.74415 22.9376 3.7622 23.8603 3.97281 24.7504C4.18341 25.6405 4.58202 26.4789 5.14357 27.2127C5.05729 27.1043 5.22787 27.3231 5.14357 27.2127C5.14952 27.2204 5.16242 27.1552 5.14357 27.2127C3.79231 26.4817 2.6339 25.4583 1.75881 24.2226C0.459842 22.2896 -0.14741 19.9975 0.0303158 17.6982C0.208042 15.3989 1.16092 13.2197 2.7426 11.4952C3.99724 10.1269 5.15492 8.67808 6.20769 7.15871C6.86047 6.17673 7.28439 5.06896 7.45 3.91242C7.61561 2.75587 7.51892 1.57831 7.16666 0.461577C7.14081 0.308966 7.12723 0.154643 7.12602 0C8.04534 0.54698 8.89226 1.01238 9.69754 1.53537C13.2414 3.73193 16.2546 6.64162 18.5318 10.0663C19.6117 11.6027 20.363 13.3326 20.7415 15.1541C21.1199 16.9757 21.1179 18.8522 20.7354 20.673C20.1199 23.3161 18.4768 25.6286 16.1467 27.1312Z" fill="white"/>
</svg>
