<svg width="21" height="20" viewBox="0 0 21 20" fill="none" xmlns="http://www.w3.org/2000/svg">
<g clip-path="url(#clip0_4449_302044)">
<path d="M18.5858 2.11841H2.84138C1.06795 2.11841 0.906368 8.41047 2.27191 9.73923L0.48173 12.246C0.411652 12.3442 0.369959 12.4598 0.361223 12.58C0.352486 12.7003 0.377044 12.8207 0.432203 12.928C0.487362 13.0353 0.570993 13.1253 0.673924 13.1881C0.776856 13.251 0.895113 13.2843 1.01573 13.2844H3.64303C3.73013 13.2844 3.81367 13.2498 3.87526 13.1883C3.93685 13.1267 3.97145 13.0431 3.97145 12.956C3.97145 12.8689 3.93685 12.7854 3.87526 12.7238C3.81367 12.6622 3.73013 12.6276 3.64303 12.6276H1.01573L2.89261 10.0003H3.72908C3.58188 10.5643 3.62706 11.1612 3.85746 11.6966C4.08785 12.232 4.49029 12.6752 5.00102 12.956C4.55263 13.2028 4.18609 13.5752 3.94643 14.0275C3.70676 14.4797 3.60441 14.9921 3.65195 15.5017C3.69949 16.0114 3.89485 16.496 4.21403 16.8961C4.5332 17.2962 4.9623 17.5944 5.4486 17.754C5.9349 17.9136 6.45724 17.9277 6.95144 17.7945C7.44564 17.6614 7.89019 17.3868 8.23047 17.0044C8.57075 16.6221 8.79195 16.1487 8.86689 15.6424C8.94183 15.1361 8.86725 14.6189 8.65232 14.1544C13.457 15.7965 13.2448 15.7682 13.7348 15.7682C14.1729 15.7685 14.601 15.6375 14.9639 15.3922C15.3268 15.1469 15.6079 14.7984 15.771 14.3919C15.7876 14.3505 15.7955 14.3062 15.7944 14.2616C15.7933 14.217 15.7831 14.1732 15.7645 14.1327C15.7458 14.0922 15.7192 14.0559 15.6861 14.0261C15.653 13.9962 15.6142 13.9734 15.572 13.959L12.6383 12.956L15.572 11.9531C15.6142 11.9387 15.653 11.9159 15.6861 11.886C15.7192 11.8562 15.7458 11.8199 15.7645 11.7794C15.7831 11.7389 15.7933 11.695 15.7944 11.6505C15.7955 11.6059 15.7876 11.5616 15.771 11.5202C15.5617 10.9992 15.1606 10.5782 14.6503 10.344C14.14 10.1098 13.5593 10.0801 13.0278 10.2611L8.89436 11.6752L8.71439 11.6138C8.91911 11.1003 8.95308 10.5346 8.81127 10.0003H18.1589L16.3802 12.49C16.3498 12.5326 16.3097 12.5673 16.2632 12.5912C16.2167 12.6151 16.1652 12.6276 16.1129 12.6276H15.1375C15.0504 12.6276 14.9669 12.6622 14.9053 12.7238C14.8437 12.7854 14.8091 12.8689 14.8091 12.956C14.8091 13.0431 14.8437 13.1267 14.9053 13.1883C14.9669 13.2498 15.0504 13.2844 15.1375 13.2844H16.1132C16.4314 13.2844 16.7296 13.1308 16.9149 12.872L19.1376 9.76058C20.5153 8.47254 20.3704 2.11841 18.5858 2.11841ZM4.29986 10.6571C4.29966 10.325 4.38343 9.99816 4.54339 9.70705C4.70335 9.41593 4.9343 9.16998 5.21479 8.99205C5.49528 8.81412 5.81619 8.70997 6.14771 8.6893C6.47923 8.66863 6.8106 8.7321 7.11101 8.87382C7.41143 9.01553 7.67115 9.23088 7.86603 9.49987C8.06091 9.76886 8.18463 10.0827 8.2257 10.4124C8.26676 10.742 8.22384 11.0766 8.10091 11.3852C7.97798 11.6938 7.77904 11.9663 7.52258 12.1774C7.52028 12.1797 7.51732 12.1807 7.51535 12.183C7.22656 12.4184 6.87695 12.5671 6.50707 12.6118C6.13719 12.6566 5.7622 12.5956 5.42559 12.4358C5.08898 12.2761 4.80456 12.0242 4.60531 11.7094C4.40606 11.3946 4.30015 11.0297 4.29986 10.6571ZM6.27034 17.2254C5.76369 17.2178 5.27946 17.0152 4.91823 16.6599C4.557 16.3046 4.34653 15.8237 4.33056 15.3173C4.31458 14.8108 4.49431 14.3177 4.83242 13.9403C5.17054 13.5629 5.64104 13.3303 6.1462 13.2907H6.15474C6.65721 13.2578 7.15213 13.4217 7.53604 13.7472C7.84509 14.0072 8.06677 14.356 8.17105 14.7462C8.27534 15.1364 8.25719 15.5492 8.11908 15.9287C7.98096 16.3083 7.72954 16.6362 7.39887 16.8682C7.06819 17.1001 6.67424 17.2248 6.27034 17.2254ZM13.2399 10.8828C13.5551 10.7754 13.8967 10.7732 14.2132 10.8767C14.5297 10.9802 14.8041 11.1837 14.995 11.4565L11.6235 12.6089L9.90915 12.023L13.2399 10.8828ZM14.995 14.4556C14.8043 14.7285 14.5301 14.932 14.2136 15.0355C13.8972 15.139 13.5557 15.1368 13.2406 15.0293C6.5554 12.7429 8.32555 13.3915 7.53933 12.956C7.87523 12.769 8.16655 12.5113 8.3932 12.2007L14.995 14.4556ZM17.7224 9.34349H8.54197C8.31189 8.94457 7.98081 8.61326 7.58203 8.38291C7.18326 8.15256 6.73086 8.03129 6.27034 8.03129C5.80981 8.03129 5.35741 8.15256 4.95864 8.38291C4.55987 8.61326 4.22879 8.94457 3.9987 9.34349L2.82529 9.33922C2.53628 9.25811 2.02035 8.09125 2.02035 6.05936C2.02035 3.89184 2.59572 2.77523 2.84138 2.77523H17.7224C16.9044 4.25572 16.903 7.86005 17.7224 9.34349ZM18.9179 8.9494C18.8673 9.06172 18.8009 9.16615 18.7208 9.26008C18.688 9.28011 18.6505 9.34317 18.5858 9.34317C18.3402 9.34317 17.7648 8.22656 17.7648 6.05904C17.7648 3.89151 18.3402 2.77491 18.5858 2.77491C18.8315 2.77491 19.4069 3.89184 19.4069 6.05936C19.4487 7.04637 19.2821 8.03112 18.9179 8.9494Z" fill="white"/>
<path d="M5.6145 3.43335H3.30904C3.24216 3.4334 3.17689 3.45387 3.12196 3.49201C3.06703 3.53016 3.02505 3.58417 3.00165 3.64682C2.75001 4.42587 2.63404 5.24235 2.65878 6.06065C2.65878 6.14775 2.69338 6.23129 2.75497 6.29288C2.81656 6.35447 2.9001 6.38907 2.9872 6.38907C3.0743 6.38907 3.15783 6.35447 3.21942 6.29288C3.28101 6.23129 3.31561 6.14775 3.31561 6.06065C3.30247 5.39627 3.38064 4.73321 3.5478 4.09018H5.6145C5.7016 4.09018 5.78514 4.05558 5.84672 3.99399C5.90831 3.9324 5.94291 3.84886 5.94291 3.76176C5.94291 3.67466 5.90831 3.59113 5.84672 3.52954C5.78514 3.46795 5.7016 3.43335 5.6145 3.43335ZM7.58498 10.6584C7.58498 10.31 7.44658 9.9759 7.20022 9.72954C6.95386 9.48319 6.61973 9.34478 6.27133 9.34478C5.92293 9.34478 5.58879 9.48319 5.34244 9.72954C5.09608 9.9759 4.95768 10.31 4.95768 10.6584C4.95768 11.0068 5.09608 11.341 5.34244 11.5873C5.58879 11.8337 5.92293 11.9721 6.27133 11.9721C6.61973 11.9721 6.95386 11.8337 7.20022 11.5873C7.44658 11.341 7.58498 11.0068 7.58498 10.6584ZM5.6145 10.6584C5.6145 10.4842 5.6837 10.3172 5.80688 10.194C5.93006 10.0708 6.09713 10.0016 6.27133 10.0016C6.44553 10.0016 6.61259 10.0708 6.73577 10.194C6.85895 10.3172 6.92815 10.4842 6.92815 10.6584C6.92815 10.8326 6.85895 10.9997 6.73577 11.1229C6.61259 11.2461 6.44553 11.3153 6.27133 11.3153C6.09713 11.3153 5.93006 11.2461 5.80688 11.1229C5.6837 10.9997 5.6145 10.8326 5.6145 10.6584ZM6.27133 13.9426C5.92293 13.9426 5.58879 14.081 5.34244 14.3273C5.09608 14.5737 4.95768 14.9078 4.95768 15.2562C4.95768 15.6046 5.09608 15.9388 5.34244 16.1851C5.58879 16.4315 5.92293 16.5699 6.27133 16.5699C6.61973 16.5699 6.95386 16.4315 7.20022 16.1851C7.44658 15.9388 7.58498 15.6046 7.58498 15.2562C7.58498 14.9078 7.44658 14.5737 7.20022 14.3273C6.95386 14.081 6.61973 13.9426 6.27133 13.9426ZM6.27133 15.913C6.09713 15.913 5.93006 15.8438 5.80688 15.7207C5.6837 15.5975 5.6145 15.4304 5.6145 15.2562C5.6145 15.082 5.6837 14.915 5.80688 14.7918C5.93006 14.6686 6.09713 14.5994 6.27133 14.5994C6.44553 14.5994 6.61259 14.6686 6.73577 14.7918C6.85895 14.915 6.92815 15.082 6.92815 15.2562C6.92815 15.4304 6.85895 15.5975 6.73577 15.7207C6.61259 15.8438 6.44553 15.913 6.27133 15.913Z" fill="white"/>
</g>
<defs>
<clipPath id="clip0_4449_302044">
<rect width="19.7048" height="19.7048" fill="white" transform="translate(0.362671 0.148438)"/>
</clipPath>
</defs>
</svg>
