<svg xmlns="http://www.w3.org/2000/svg" width="28" height="24" viewBox="0 0 28 24" fill="none">
<path d="M10.3278 14.6155H10.8973C10.8973 14.6157 10.8973 14.616 10.8973 14.6162C10.8972 15.0549 10.8218 15.4761 10.6036 15.8555C10.3833 16.2383 10.0481 16.5253 9.62082 16.7472L9.62075 16.7472C8.28842 17.4388 6.97875 18.1559 5.66289 18.8764C4.85413 19.3193 4.04302 19.7634 3.22288 20.2037L3.22247 20.2039C2.13124 20.7886 1.35278 21.5731 0.907093 22.6861H0.931095H0.984655H1.03821H1.09177H1.14532H1.19887H1.25242H1.30597H1.35952H1.41306H1.4666H1.52014H1.57368H1.62722H1.68075H1.73428H1.78781H1.84134H1.89486H1.94839H2.00191H2.05543H2.10895H2.16246H2.21598H2.26949H2.323H2.37651H2.43002H2.48352H2.53703H2.59053H2.64403H2.69752H2.75102H2.80451H2.85801H2.9115H2.96499H3.01847H3.07196H3.12544H3.17892H3.2324H3.28588H3.33936H3.39283H3.4463H3.49977H3.55324H3.60671H3.66018H3.71364H3.7671H3.82057H3.87403H3.92748H3.98094H4.03439H4.08785H4.1413H4.19475H4.2482H4.30164H4.35509H4.40853H4.46197H4.51541H4.56885H4.62229H4.67572H4.72916H4.78259H4.83602H4.88945H4.94288H4.9963H5.04973H5.10315H5.15657H5.20999H5.26341H5.31683H5.37025H5.42366H5.47707H5.53049H5.5839H5.6373H5.69071H5.74412H5.79752H5.85093H5.90433H5.95773H6.01113H6.06453H6.11792H6.17132H6.22471H6.27811H6.3315H6.38489H6.43828H6.49166H6.54505H6.59844H6.65182H6.7052H6.75858H6.81196H6.86534H6.91872H6.9721H7.02547H7.07885H7.13222H7.18559H7.23896H7.29233H7.3457H7.39907H7.45243H7.5058H7.55916H7.61252H7.66588H7.71924H7.7726H7.82596H7.87932H7.93268H7.98603H8.03938H8.09274H8.14609H8.19944H8.25279H8.30614H8.35949H8.41283H8.46618H8.51952H8.57287H8.62621H8.67955H8.73289H8.78623H8.83957H8.89291H8.94625H8.99958H9.05292H9.10625H9.15959H9.21292H9.26625H9.31958H9.37291H9.42624H9.47957H9.5329H9.58622H9.63955H9.69288H9.7462H9.79952H9.85285H9.90617H9.95949H10.0128H10.0661H10.1194H10.1728H10.2261H10.2794H10.3327H10.386H10.4393H10.4927H10.546H10.5993H10.6526H10.7059H10.7592H10.8125H10.8658H10.9191H10.9725H11.0258H11.0791H11.1324H11.1857H11.239H11.2923H11.3456H11.3989H11.4522H11.5055H11.5588H11.6121H11.6654H11.7187H11.772H11.8253H11.8786H11.9319H11.9852H12.0385H12.0918H12.1451H12.1984H12.2517H12.305H12.3583H12.4116H12.4649H12.5181H12.5714H12.6247H12.678H12.7313H12.7846H12.8379H12.8912H12.9445H12.9978H13.0511H13.1043H13.1576H13.2109H13.2642H13.3175H13.3708H13.4241H13.4774H13.5306H13.5839H13.6372H13.6905H13.7438H13.7971H13.8504H13.9037H13.9569H14.0102H14.0635H14.1168H14.1701H14.2234H14.2766H14.3299H14.3832H14.4365H14.4898H14.5431H14.5963H14.6496H14.7029H14.7562H14.8095H14.8628H14.916H14.9693H15.0226H15.0759H15.1292H15.1825H15.2357H15.289H15.3423H15.3956H15.4489H15.5022H15.5554H15.6087H15.662H15.7153H15.7686H15.8219H15.8751H15.9284H15.9817H16.035H16.0883H16.1416H16.1948H16.2481H16.3014H16.3547H16.408H16.4613H16.5145H16.5678H16.6211H16.6744H16.7277H16.781H16.8343H16.8875H16.9408H16.9941H17.0474H17.1007H17.154H17.2073H17.2606H17.3138H17.3671H17.4204H17.4737H17.527H17.5803H17.6336H17.6869H17.7402H17.7935H17.8468H17.9H17.9533H18.0066H18.0599H18.1132H18.1665H18.2198H18.2731H18.3264H18.3797H18.433H18.4863H18.5396H18.5929H18.6462H18.6995H18.7528H18.8061H18.8594H18.9127H18.966H19.0193H19.0726H19.1259H19.1792H19.2325H19.2858H19.3391H19.3924H19.4457H19.499H19.5523H19.6056H19.659H19.7123H19.7656H19.8189H19.8722H19.9255H19.9788H20.0321H20.0855H20.1388H20.1921H20.2454H20.2987H20.352H20.4054H20.4587H20.512H20.5653H20.6186H20.672H20.7253H20.7786H20.8319H20.8853H20.9386H20.9919H21.0452H21.0986H21.1519H21.2052H21.2586H21.3119H21.3652H21.4186H21.4719H21.5252H21.5786H21.6319H21.6853H21.7386H21.7919H21.8453H21.8986H21.952H22.0053H22.0587H22.112H22.1654H22.2187H22.2721H22.3254H22.3788H22.4321H22.4855H22.5388H22.5922H22.6455H22.6989H22.7522H22.8056H22.859H22.9123H22.9657H23.0191H23.0724H23.1258H23.1792H23.2325H23.2859H23.3393H23.3926H23.446H23.4994H23.5528H23.6062H23.6595H23.7129H23.7663H23.8197H23.8731H23.9264H23.9798H24.0332H24.0866H24.14H24.1934H24.2468H24.3002H24.3536H24.407H24.4604H24.5138H24.5672H24.6206H24.674H24.7274H24.7808H24.8342H24.8876H24.941H24.9944H25.0478H25.1013H25.1547H25.2081H25.2615H25.3149H25.3683H25.4218H25.4752H25.5286H25.5821H25.6355H25.6889H25.7423H25.7958H25.8492H25.9027H25.9561H26.0095H26.063H26.1164H26.1699H26.2233H26.2768H26.3302H26.3837H26.4371H26.4906H26.544H26.5975H26.6509H26.7044H26.7086L24.7068 19.7704M10.3278 14.6155C10.3301 12.9641 9.83738 11.5316 8.73797 10.2566C8.32284 9.77531 8.19093 9.30107 8.03583 8.65785C7.88985 8.06024 7.83244 7.29137 8.54181 6.79869C8.80999 6.61206 8.84094 6.08254 8.87191 5.55264C8.88599 5.31185 8.90007 5.07098 8.93641 4.86218C9.52717 1.45902 12.9417 -0.247116 16.0324 1.32673C17.4671 2.05663 17.937 3.37957 18.2198 4.85305C18.2612 5.06791 18.2845 5.2631 18.307 5.45211C18.3791 6.05567 18.4437 6.59617 19.0638 7.51262C19.6765 8.41815 18.8425 9.80268 18.2495 10.4163C17.0634 11.6457 16.4817 13.0964 16.6368 14.8344C16.6939 15.464 16.906 15.8335 17.5036 16.1254C19.1915 16.9487 20.8638 17.8053 22.5361 18.6618C23.2592 19.0322 23.9824 19.4027 24.7068 19.7704M10.3278 14.6155C10.3278 15.3659 10.07 15.8722 9.35838 16.2418L10.3278 14.6155ZM24.7068 19.7704L24.4485 20.2779C24.4487 20.278 24.4489 20.2781 24.449 20.2782L24.7068 19.7704Z" stroke="#364A63" stroke-width="1.13899"/>
</svg>